<svg width="39" height="29" viewBox="0 0 39 29" fill="none" xmlns="http://www.w3.org/2000/svg">
<path d="M3 7H4V6H3V7ZM3 25H2H3ZM36 7V6H35V7H36ZM2 3C2 2.44772 2.44772 2 3 2V0C1.34315 0 0 1.34315 0 3H2ZM2 5V3H0V5H2ZM3 6C2.44772 6 2 5.55228 2 5H0C0 6.65685 1.34315 8 3 8V6ZM4 25L4 7H2L2 25H4ZM6 27C4.89543 27 4 26.1046 4 25H2C2 27.2091 3.79086 29 6 29V27ZM33 27H6V29H33V27ZM35 25C35 26.1046 34.1046 27 33 27V29C35.2091 29 37 27.2091 37 25H35ZM35 7V25H37V7H35ZM37 5C37 5.55228 36.5523 6 36 6V8C37.6569 8 39 6.65685 39 5H37ZM37 3V5H39V3H37ZM36 2C36.5523 2 37 2.44772 37 3H39C39 1.34314 37.6569 0 36 0V2ZM33 2H36V0H33V2ZM6 2H33V0H6V2ZM3 2H6V0H3V2Z" fill="#000000"/>
</svg>
