<svg width="22" height="31" viewBox="0 0 22 31" fill="none" xmlns="http://www.w3.org/2000/svg">
<path d="M12 1C12 0.447715 11.5523 2.41411e-08 11 0C10.4477 -2.41411e-08 10 0.447715 10 1L12 1ZM10.2929 26.2071C10.6834 26.5976 11.3166 26.5976 11.7071 26.2071L18.0711 19.8431C18.4616 19.4526 18.4616 18.8195 18.0711 18.4289C17.6805 18.0384 17.0474 18.0384 16.6569 18.4289L11 24.0858L5.34315 18.4289C4.95262 18.0384 4.31946 18.0384 3.92893 18.4289C3.53841 18.8195 3.53841 19.4526 3.92893 19.8431L10.2929 26.2071ZM10 1L10 25.5L12 25.5L12 1L10 1Z" fill="#000000"/>
<line x1="0.5" y1="30.5" x2="21.5" y2="30.5" stroke="#000000" stroke-linecap="round"/>
</svg>
